<?xml version="1.0" encoding="utf-8"?><!DOCTYPE svg PUBLIC "-//W3C//DTD SVG 1.1//EN" "http://www.w3.org/Graphics/SVG/1.1/DTD/svg11.dtd"><svg version="1.1" xmlns="http://www.w3.org/2000/svg" xmlns:xlink="http://www.w3.org/1999/xlink" width="30" height="28" viewBox="0 0 30 28" data-code="61573" data-tags="cogs,gears"><g fill="#444" transform="scale(0.02734375 0.02734375)"><path d="M512 512c0-80.571-65.714-146.286-146.286-146.286s-146.286 65.714-146.286 146.286 65.714 146.286 146.286 146.286 146.286-65.714 146.286-146.286zM950.857 804.571c0-40-33.143-73.143-73.143-73.143s-73.143 33.143-73.143 73.143c0 40.571 33.143 73.143 73.143 73.143 40.571 0 73.143-33.143 73.143-73.143zM950.857 219.429c0-40-33.143-73.143-73.143-73.143s-73.143 33.143-73.143 73.143c0 40.571 33.143 73.143 73.143 73.143 40.571 0 73.143-33.143 73.143-73.143zM731.429 460v105.714c0 7.429-5.714 16-13.143 17.143l-88.571 13.714c-4.571 14.857-10.857 29.143-18.286 43.429 16 22.857 33.143 44 51.429 65.714 2.286 3.429 4 6.857 4 11.429 0 4-1.143 8-4 10.857-11.429 15.429-75.429 85.143-92 85.143-4.571 0-8.571-1.714-12-4l-65.714-51.429c-14.286 7.429-28.571 13.143-44 17.714-2.857 29.143-5.714 60.571-13.143 88.571-2.286 8-9.143 13.714-17.143 13.714h-106.286c-8 0-16-6.286-17.143-14.286l-13.143-87.429c-14.857-4.571-29.143-10.857-42.857-17.714l-67.429 50.857c-2.857 2.857-7.429 4-11.429 4-4.571 0-8.571-1.714-12-4.571-14.857-13.714-82.286-74.857-82.286-91.429 0-4 1.714-7.429 4-10.857 16.571-21.714 33.714-42.857 50.286-65.143-8-15.429-14.857-30.857-20-46.857l-86.857-13.714c-8-1.143-13.714-8.571-13.714-16.571v-105.714c0-7.429 5.714-16 13.143-17.143l88.571-13.714c4.571-14.857 10.857-29.143 18.286-43.429-16-22.857-33.143-44-51.429-65.714-2.286-3.429-4-7.429-4-11.429s1.143-8 4-11.429c11.429-15.429 75.429-84.571 92-84.571 4.571 0 8.571 1.714 12 4l65.714 51.429c14.286-7.429 28.571-13.143 44-18.286 2.857-28.571 5.714-60 13.143-88 2.286-8 9.143-13.714 17.143-13.714h106.286c8 0 16 6.286 17.143 14.286l13.143 87.429c14.857 4.571 29.143 10.857 42.857 17.714l67.429-50.857c3.429-2.857 7.429-4 11.429-4 4.571 0 8.571 1.714 12 4.571 14.857 13.714 82.286 75.429 82.286 91.429 0 4-1.714 7.429-4 10.857-16.571 22.286-33.714 42.857-49.714 65.143 7.429 15.429 14.286 30.857 19.429 46.857l86.857 13.143c8 1.714 13.714 9.143 13.714 17.143zM1097.143 764.571v80c0 8.571-73.714 16.571-85.143 17.714-4.571 10.857-10.286 20.571-17.143 29.714 5.143 11.429 29.143 68.571 29.143 78.857 0 1.714-0.571 2.857-2.286 4-6.857 4-68 40.571-70.857 40.571-7.429 0-50.286-57.143-56-65.714-5.714 0.571-11.429 1.143-17.143 1.143s-11.429-0.571-17.143-1.143c-5.714 8.571-48.571 65.714-56 65.714-2.857 0-64-36.571-70.857-40.571-1.714-1.143-2.286-2.857-2.286-4 0-9.714 24-67.429 29.143-78.857-6.857-9.143-12.571-18.857-17.143-29.714-11.429-1.143-85.143-9.143-85.143-17.714v-80c0-8.571 73.714-16.571 85.143-17.714 4.571-10.286 10.286-20.571 17.143-29.714-5.143-11.429-29.143-69.143-29.143-78.857 0-1.143 0.571-2.857 2.286-4 6.857-3.429 68-40 70.857-40 7.429 0 50.286 56.571 56 65.143 5.714-0.571 11.429-1.143 17.143-1.143s11.429 0.571 17.143 1.143c16-22.286 33.143-44.571 52.571-64l3.429-1.143c2.857 0 64 36 70.857 40 1.714 1.143 2.286 2.857 2.286 4 0 10.286-24 67.429-29.143 78.857 6.857 9.143 12.571 19.429 17.143 29.714 11.429 1.143 85.143 9.143 85.143 17.714zM1097.143 179.429v80c0 8.571-73.714 16.571-85.143 17.714-4.571 10.857-10.286 20.571-17.143 29.714 5.143 11.429 29.143 68.571 29.143 78.857 0 1.714-0.571 2.857-2.286 4-6.857 4-68 40.571-70.857 40.571-7.429 0-50.286-57.143-56-65.714-5.714 0.571-11.429 1.143-17.143 1.143s-11.429-0.571-17.143-1.143c-5.714 8.571-48.571 65.714-56 65.714-2.857 0-64-36.571-70.857-40.571-1.714-1.143-2.286-2.857-2.286-4 0-9.714 24-67.429 29.143-78.857-6.857-9.143-12.571-18.857-17.143-29.714-11.429-1.143-85.143-9.143-85.143-17.714v-80c0-8.571 73.714-16.571 85.143-17.714 4.571-10.286 10.286-20.571 17.143-29.714-5.143-11.429-29.143-69.143-29.143-78.857 0-1.143 0.571-2.857 2.286-4 6.857-3.429 68-40 70.857-40 7.429 0 50.286 56.571 56 65.143 5.714-0.571 11.429-1.143 17.143-1.143s11.429 0.571 17.143 1.143c16-22.286 33.143-44.571 52.571-64l3.429-1.143c2.857 0 64 36 70.857 40 1.714 1.143 2.286 2.857 2.286 4 0 10.286-24 67.429-29.143 78.857 6.857 9.143 12.571 19.429 17.143 29.714 11.429 1.143 85.143 9.143 85.143 17.714z" /></g></svg>