<?xml version="1.0" encoding="utf-8"?><!DOCTYPE svg PUBLIC "-//W3C//DTD SVG 1.1//EN" "http://www.w3.org/Graphics/SVG/1.1/DTD/svg11.dtd"><svg version="1.1" xmlns="http://www.w3.org/2000/svg" xmlns:xlink="http://www.w3.org/1999/xlink" width="20" height="20" viewBox="0 0 20 20" data-tags="cog"><g fill="#444" transform="scale(0.01953125 0.01953125)"><path d="M859.29 512c0-53.709 33.075-96 82.79-125.082-9.011-29.901-20.838-58.624-35.43-85.606-55.757 14.592-100.864-7.219-138.803-45.21-37.939-37.888-49.562-82.995-34.97-138.803-26.982-14.592-55.706-26.522-85.606-35.379-29.082 49.664-81.664 82.688-135.27 82.688-53.658 0-106.189-33.024-135.322-82.688-29.952 8.858-58.573 20.787-85.555 35.379 14.592 55.808 3.021 100.915-35.021 138.803-37.888 37.99-82.995 59.802-138.803 45.21-14.592 26.982-26.47 55.706-35.379 85.606 49.664 29.082 82.688 71.373 82.688 125.082 0 53.606-33.024 106.189-82.688 135.322 8.96 29.901 20.787 58.573 35.379 85.606 55.808-14.592 100.915-3.021 138.803 34.918 37.939 37.99 49.613 83.098 35.021 138.803 26.982 14.592 55.654 26.522 85.606 35.482 29.082-49.818 81.664-82.79 135.322-82.79 53.606 0 106.189 33.024 135.322 82.79 29.901-9.011 58.573-20.89 85.606-35.482-14.592-55.706-3.021-100.813 34.97-138.803 37.939-37.888 83.046-59.699 138.803-45.21 14.592-26.982 26.47-55.603 35.43-85.606-49.818-29.133-82.893-71.424-82.893-125.030zM512 698.982c-103.322 0-187.034-83.712-187.034-186.982 0-103.322 83.763-187.085 187.034-187.085 103.322 0 186.982 83.814 186.982 187.085-0 103.322-83.661 186.982-186.982 186.982z" /></g></svg>