<?xml version="1.0" encoding="utf-8"?><!DOCTYPE svg PUBLIC "-//W3C//DTD SVG 1.1//EN" "http://www.w3.org/Graphics/SVG/1.1/DTD/svg11.dtd"><svg version="1.1" xmlns="http://www.w3.org/2000/svg" xmlns:xlink="http://www.w3.org/1999/xlink" width="24" height="24" viewBox="0 0 24 24" data-tags="cog-outline"><g fill="#444" transform="scale(0.0234375 0.0234375)"><path d="M554.667 213.333l36.48 145.92 144.597-41.429 64.043 110.933-108.16 104.491 108.16 104.576-64 110.933-144.64-41.429-36.48 146.005h-128l-36.48-146.005-144.64 41.429-64.043-110.933 108.16-104.576-108.117-104.491 64-110.933 144.64 41.429 36.48-145.92h128M554.667 128h-128c-39.168 0-73.301 26.667-82.731 64.683l-15.104 60.245-59.733-17.067c-7.851-2.261-15.744-3.328-23.552-3.328-29.867 0-58.368 15.787-73.856 42.667l-64 110.933c-19.584 33.963-13.525 76.885 14.592 104.021l44.672 43.136-44.715 43.307c-28.16 27.179-34.219 70.101-14.635 104.021l64.085 110.933c15.488 26.923 43.989 42.667 73.856 42.667 7.808 0 15.701-1.067 23.552-3.243l59.691-17.109 15.104 60.373c9.472 37.76 43.605 64.427 82.773 64.427h128c39.168 0 73.301-26.667 82.731-64.683l15.104-60.331 59.691 17.067c7.851 2.261 15.744 3.285 23.552 3.285 29.867 0 58.368-15.787 73.856-42.667l64-110.933c19.584-33.963 13.525-76.8-14.592-104.021l-44.672-43.221 44.672-43.221c28.16-27.179 34.176-70.144 14.592-104.021l-64-110.933c-15.573-26.923-43.989-42.667-73.899-42.667-7.851 0-15.701 1.067-23.509 3.243l-59.733 17.109-15.104-60.288c-9.387-37.717-43.52-64.384-82.688-64.384z" /><path d="M490.667 448c47.104 0 85.333 38.187 85.333 85.333 0 47.104-38.229 85.333-85.333 85.333s-85.333-38.229-85.333-85.333c0-47.147 38.229-85.333 85.333-85.333M490.667 405.333c-70.571 0-128 57.429-128 128s57.429 128 128 128 128-57.429 128-128-57.429-128-128-128z" /></g></svg>