<?xml version="1.0" encoding="utf-8"?><!DOCTYPE svg PUBLIC "-//W3C//DTD SVG 1.1//EN" "http://www.w3.org/Graphics/SVG/1.1/DTD/svg11.dtd"><svg version="1.1" xmlns="http://www.w3.org/2000/svg" xmlns:xlink="http://www.w3.org/1999/xlink" width="24" height="24" viewBox="0 0 24 24" data-tags="smartphone"><g fill="#444" transform="scale(0.0234375 0.0234375)"><path d="M298.667 42.667c-35.328 0-67.413 14.379-90.496 37.504s-37.504 55.168-37.504 90.496v682.667c0 35.328 14.379 67.413 37.504 90.496s55.168 37.504 90.496 37.504h426.667c35.328 0 67.413-14.379 90.496-37.504s37.504-55.168 37.504-90.496v-682.667c0-35.328-14.379-67.413-37.504-90.496s-55.168-37.504-90.496-37.504zM298.667 128h426.667c11.776 0 22.4 4.736 30.165 12.501s12.501 18.389 12.501 30.165v682.667c0 11.776-4.736 22.4-12.501 30.165s-18.389 12.501-30.165 12.501h-426.667c-11.776 0-22.4-4.736-30.165-12.501s-12.501-18.389-12.501-30.165v-682.667c0-11.776 4.736-22.4 12.501-30.165s18.389-12.501 30.165-12.501zM512 810.667c23.552 0 42.667-19.115 42.667-42.667s-19.115-42.667-42.667-42.667-42.667 19.115-42.667 42.667 19.115 42.667 42.667 42.667z" /></g></svg>