<?xml version="1.0" encoding="utf-8"?><!DOCTYPE svg PUBLIC "-//W3C//DTD SVG 1.1//EN" "http://www.w3.org/Graphics/SVG/1.1/DTD/svg11.dtd"><svg version="1.1" xmlns="http://www.w3.org/2000/svg" xmlns:xlink="http://www.w3.org/1999/xlink" width="18" height="18" viewBox="0 0 18 18" data-tags="cog"><g fill="#444" transform="scale(0.017578125 0.017578125)"><path d="M919.584 447.18l-75.388-12.555c-8.695-37.388-23.5-72.347-43.333-103.902l41.972-58.777c16-22.416 13.472-53.111-6-72.597l-12.194-12.181c-19.472-19.472-50.167-22.014-72.583-6l-58.777 41.986c-31.556-19.847-66.5-34.667-103.89-43.348l-12.583-75.374c-4.556-27.433-28.308-47.543-56.112-47.543h-17.388c-27.806 0-51.556 20.11-56.11 47.541l-12.583 75.374c-37.388 8.681-72.334 23.5-103.89 43.348l-58.777-41.986c-22.416-16.014-53.111-13.472-72.583 6l-12.194 12.181c-19.472 19.486-22 50.181-6 72.597l41.972 58.777c-19.833 31.556-34.638 66.514-43.333 103.902l-75.388 12.555c-27.42 4.585-47.531 28.322-47.531 56.126v17.388c0 27.806 20.11 51.541 47.527 56.11l75.388 12.569c8.695 37.388 23.5 72.347 43.333 103.902l-41.972 58.777c-16 22.416-13.472 53.111 6 72.597l12.194 12.181c19.472 19.472 50.167 22.014 72.583 6l58.777-41.986c31.556 19.847 66.5 34.667 103.89 43.348l12.583 75.374c4.555 27.431 28.306 47.541 56.11 47.541h17.388c27.806 0 51.556-20.11 56.11-47.541l12.583-75.374c37.388-8.681 72.334-23.5 103.89-43.348l58.777 41.986c22.416 16.014 53.111 13.472 72.583-6l12.194-12.181c19.472-19.486 22-50.181 6-72.597l-41.972-58.777c19.833-31.556 34.638-66.514 43.333-103.902l75.388-12.569c27.417-4.569 47.527-28.306 47.527-56.11v-17.388c0.005-27.804-20.105-51.541-47.522-56.124zM512 682.667c-94.251 0-170.667-76.416-170.667-170.667s76.416-170.667 170.667-170.667 170.667 76.416 170.667 170.667-76.416 170.667-170.667 170.667z" /></g></svg>