<?xml version="1.0" encoding="utf-8"?><!DOCTYPE svg PUBLIC "-//W3C//DTD SVG 1.1//EN" "http://www.w3.org/Graphics/SVG/1.1/DTD/svg11.dtd"><svg version="1.1" xmlns="http://www.w3.org/2000/svg" xmlns:xlink="http://www.w3.org/1999/xlink" width="16" height="16" viewBox="0 0 16 16" data-tags="settings,cog,gear,options,preferences"><g fill="#444" transform="scale(0.015625 0.015625)"><path d="M1024 448v128h-133.812c-9.562 56.688-32.094 108.75-63.656 154.062l134.218 116.688-92.376 114.124-147.968-128.688c-43.094 28-91.624 48.438-144.406 57.376v134.438h-128v-133.812c-52.938-8.938-101.532-29.562-144.656-57.812l-147.718 128.5-92.376-114.124 134.438-116.938c-31.312-45.252-53.688-97.19-63.25-153.814h-134.438v-128h133.812c9.562-56.688 32.094-108.75 63.656-154.062l-134.218-116.688 92.376-114.124 147.968 128.688c43.094-28 91.624-48.438 144.406-57.376v-134.438h128v134.438c52.782 8.938 101.312 29.376 144.406 57.376l147.968-128.688 92.376 114.124-134.218 116.688c31.562 45.312 54.094 97.376 63.656 154.062h133.812zM512 320c-106.032 0-192 85.938-192 192s85.968 192 192 192 192-85.938 192-192-85.968-192-192-192z" /></g></svg>