<?xml version="1.0" encoding="utf-8"?><!DOCTYPE svg PUBLIC "-//W3C//DTD SVG 1.1//EN" "http://www.w3.org/Graphics/SVG/1.1/DTD/svg11.dtd"><svg version="1.1" xmlns="http://www.w3.org/2000/svg" xmlns:xlink="http://www.w3.org/1999/xlink" width="24" height="24" viewBox="0 0 24 24" data-tags="cog"><g fill="#444" transform="scale(0.0234375 0.0234375)"><path d="M400.512 748.715l15.829 63.232c5.675 22.741 29.525 41.387 52.992 41.387h42.667c23.467 0 47.317-18.645 52.992-41.387l15.829-63.232c5.675-22.741 28.8-36.096 51.328-29.611l62.592 17.92c22.571 6.443 50.688-4.864 62.379-25.216l21.333-36.992c11.691-20.352 7.552-50.304-9.344-66.645l-46.848-45.269c-16.896-16.341-16.896-43.008 0.043-59.307l46.763-45.269c16.896-16.299 21.077-46.251 9.387-66.603l-21.376-36.992c-11.733-20.352-39.808-31.659-62.336-25.216l-62.592 17.92c-22.571 6.443-45.653-6.869-51.371-29.611l-15.787-63.147c-5.675-22.699-29.525-41.344-52.992-41.344h-42.667c-23.467 0-47.317 18.645-52.992 41.387l-15.787 63.147c-5.717 22.741-28.8 36.096-51.371 29.653l-62.592-17.92c-22.571-6.485-50.688 4.864-62.379 25.173l-21.333 36.992c-11.691 20.352-7.552 50.304 9.387 66.645l46.763 45.184c16.853 16.341 16.853 43.008 0 59.349l-46.848 45.269c-16.853 16.341-21.077 46.293-9.344 66.645l21.376 36.992c11.691 20.352 39.808 31.659 62.379 25.216l62.592-17.92c22.528-6.528 45.653 6.827 51.328 29.568zM490.667 448c47.104 0 85.333 38.187 85.333 85.333 0 47.104-38.229 85.333-85.333 85.333s-85.333-38.229-85.333-85.333c0-47.147 38.229-85.333 85.333-85.333z" /></g></svg>