<?xml version="1.0" encoding="utf-8"?><!DOCTYPE svg PUBLIC "-//W3C//DTD SVG 1.1//EN" "http://www.w3.org/Graphics/SVG/1.1/DTD/svg11.dtd"><svg version="1.1" xmlns="http://www.w3.org/2000/svg" xmlns:xlink="http://www.w3.org/1999/xlink" width="32" height="32" viewBox="0 0 32 32" data-tags="cog,gear,settings,options"><g fill="#444" transform="scale(0.03125 0.03125)"><path d="M850.336 464h61.664v96h-61.664c-4.192 30.592-11.968 60.032-23.488 87.584l53.408 30.848-48 83.136-54.336-31.36c-18.656 23.552-40.32 44.544-64.352 62.656l32 55.392-83.136 48-32.672-56.544c-27.168 10.592-55.84 17.984-85.792 21.536v66.752h-96v-68.576c-29.184-4.512-57.312-12.192-83.648-23.392l-34.784 60.224-83.136-48 35.616-61.696c-22.304-17.888-42.208-38.496-59.584-61.216l-62.752 36.224-48-83.136 63.328-36.576c-10.272-25.952-17.472-53.376-21.376-81.888l-73.632 0v-96h73.664c3.904-28.544 11.104-55.968 21.376-81.888l-63.328-36.576 48-83.136 62.752 36.224c17.376-22.72 37.28-43.328 59.584-61.248l-35.616-61.6 83.136-48 34.784 60.224c26.336-11.2 54.464-18.912 83.648-23.392v-68.576h96v66.72c29.952 3.552 58.624 10.944 85.792 21.536l32.672-56.544 83.136 48-32 55.424c24.032 18.112 45.696 39.104 64.352 62.656l54.336-31.36 48 83.136-53.408 30.848c11.488 27.552 19.264 56.992 23.456 87.584zM495.712 303.712c-114.88 0-208 93.12-208 208s93.12 208 208 208 208-93.12 208-208-93.12-208-208-208zM496 592c-44.192 0-80-35.808-80-80s35.808-80 80-80 80 35.808 80 80-35.808 80-80 80z" /></g></svg>