<?xml version="1.0" encoding="utf-8"?><!DOCTYPE svg PUBLIC "-//W3C//DTD SVG 1.1//EN" "http://www.w3.org/Graphics/SVG/1.1/DTD/svg11.dtd"><svg version="1.1" xmlns="http://www.w3.org/2000/svg" xmlns:xlink="http://www.w3.org/1999/xlink" width="20" height="20" viewBox="0 0 20 20" data-tags="cog"><g fill="#444" transform="scale(0.01953125 0.01953125)"><path d="M201.728 332.8l-88.064-146.432 72.704-72.704 146.432 88.064c26.624-15.36 56.32-27.648 87.040-35.84l40.96-165.888h102.4l40.96 165.888c30.72 8.192 60.416 20.48 87.040 35.84l146.432-88.064 72.704 72.704-88.064 146.432c15.36 26.624 27.648 56.32 35.84 87.040l165.888 40.96v102.4l-165.888 40.96c-8.192 30.72-20.48 60.416-35.84 87.040l88.064 146.432-72.704 72.704-146.432-88.064c-26.624 15.36-56.32 27.648-87.040 35.84l-40.96 165.888h-102.4l-40.96-165.888c-30.72-8.192-60.416-20.48-87.040-35.84l-146.432 88.064-72.704-72.704 88.064-146.432c-15.36-26.624-27.648-56.32-35.84-87.040l-165.888-40.96v-102.4l165.888-40.96c8.192-30.72 20.48-60.416 35.84-87.040zM512 665.6c84.831 0 153.6-68.769 153.6-153.6s-68.769-153.6-153.6-153.6v0c-84.831 0-153.6 68.769-153.6 153.6s68.769 153.6 153.6 153.6v0z" /></g></svg>